<svg xmlns="http://www.w3.org/2000/svg" width="15.376" height="19.966" viewBox="0 0 15.376 19.966">
  <g id="cv-file-interface-symbol-svgrepo-com" transform="translate(-5.179)">
    <g id="_x35_8_24_" transform="translate(5.179)">
      <g id="Group_2" data-name="Group 2">
        <path fill="#444" id="Path_2" data-name="Path 2" d="M16.494,22.059a.675.675,0,0,1-.117.2.5.5,0,0,1-.175.133.6.6,0,0,1-.253.047.622.622,0,0,1-.346-.09.668.668,0,0,1-.221-.24,1.155,1.155,0,0,1-.12-.335,1.936,1.936,0,0,1,0-.756,1.145,1.145,0,0,1,.12-.335.668.668,0,0,1,.221-.24.615.615,0,0,1,.346-.09.569.569,0,0,1,.3.068.659.659,0,0,1,.183.16.554.554,0,0,1,.1.183c.018.062.03.111.037.146H17.7a1.67,1.67,0,0,0-.5-1.109,1.757,1.757,0,0,0-1.215-.4,2.086,2.086,0,0,0-.795.144,1.743,1.743,0,0,0-.606.4,1.766,1.766,0,0,0-.388.627,2.332,2.332,0,0,0-.136.814,2.367,2.367,0,0,0,.128.784,1.742,1.742,0,0,0,.978,1.051,2.061,2.061,0,0,0,.819.154,1.877,1.877,0,0,0,.739-.138,1.67,1.67,0,0,0,.545-.364,1.568,1.568,0,0,0,.335-.508,1.5,1.5,0,0,0,.115-.569H16.565A1.435,1.435,0,0,1,16.494,22.059Z" transform="translate(-10.122 -10.808)"/>
        <path fill="#444" id="Path_3" data-name="Path 3" d="M24.341,21.918h-.011l-.622-2.3h-1.18l1.133,3.8h1.308l1.186-3.8h-1.2Z" transform="translate(-14.84 -10.924)"/>
        <path fill="#444" id="Path_4" data-name="Path 4" d="M17.7,0H5.179V19.966H20.555V2.77Zm1.527,18.636H6.508V1.329h10.5V3.439h2.212v15.2Z" transform="translate(-5.179)"/>
      </g>
    </g>
  </g>
</svg>
