<svg width="336.001" height="83.3" viewBox="0 0 336.001 83.3" xmlns="http://www.w3.org/2000/svg">
  <g id="svgGroup" stroke-linecap="round" fill-rule="evenodd" font-size="9pt" stroke="#000" stroke-width="0.25mm"
     fill="none" style="stroke:#000;stroke-width:0.25mm;fill:none">
    <path
      d="M 8.7 31.8 L 3.5 32.3 A 4.227 4.227 0 0 1 3.219 32.31 Q 1.905 32.31 1 31.45 A 3.298 3.298 0 0 1 0.291 30.5 A 2.939 2.939 0 0 1 0 29.2 A 2.958 2.958 0 0 1 0.995 26.958 A 4.175 4.175 0 0 1 1.3 26.7 A 11.26 11.26 0 0 1 3.68 25.231 A 14.096 14.096 0 0 1 5.15 24.65 A 14.386 14.386 0 0 1 8.016 24.024 A 18.601 18.601 0 0 1 10.2 23.9 L 10.7 23.9 A 3.259 3.259 0 0 1 10.952 23.909 Q 11.5 23.952 11.5 24.2 A 0.609 0.609 0 0 1 11.191 24.71 Q 10.682 25.057 9.331 25.165 A 14.529 14.529 0 0 1 8.7 25.2 A 6.302 6.302 0 0 0 7.372 25.456 Q 6.773 25.636 6.137 25.935 A 11.061 11.061 0 0 0 5.9 26.05 Q 4.627 26.687 4.434 27.215 A 0.538 0.538 0 0 0 4.4 27.4 Q 4.4 27.946 5.31 28.161 A 3.738 3.738 0 0 0 5.5 28.2 Q 6.9 28.5 8.8 28.5 Q 9.5 28.5 10.25 28.45 Q 11 28.4 11.8 28.3 A 88.58 88.58 0 0 1 33.914 11.008 A 101.516 101.516 0 0 1 37.1 9.3 A 85.6 85.6 0 0 1 47.915 4.447 A 74.217 74.217 0 0 1 52.8 2.85 Q 60.6 0.6 68.4 0.1 Q 68.9 0 69.4 0 L 70.3 0 L 71.9 0 Q 77.7 0 80.2 1.9 A 5.853 5.853 0 0 1 82.346 4.816 Q 82.9 6.371 82.9 8.5 A 19.533 19.533 0 0 1 82.816 10.397 Q 82.634 12.248 82.059 13.222 A 1.96 1.96 0 0 1 80.3 14.3 A 1.831 1.831 0 0 1 79.251 14.011 Q 78.535 13.527 78.358 12.235 A 6.925 6.925 0 0 1 78.3 11.3 A 2.369 2.369 0 0 1 78.304 11.172 Q 78.311 11.045 78.33 10.87 A 10.977 10.977 0 0 1 78.35 10.7 A 10.439 10.439 0 0 1 78.408 10.303 Q 78.442 10.096 78.487 9.866 A 17.262 17.262 0 0 1 78.5 9.8 Q 78.591 9.344 78.599 8.971 A 3.308 3.308 0 0 0 78.6 8.9 L 78.6 8.2 A 6.23 6.23 0 0 0 78.229 5.999 Q 77.64 4.428 76.115 3.417 A 7.024 7.024 0 0 0 75.85 3.25 A 9.216 9.216 0 0 0 73.21 2.203 Q 71.331 1.759 68.944 1.88 A 21.71 21.71 0 0 0 68.6 1.9 A 53.433 53.433 0 0 0 55.666 4.493 Q 47.817 7.041 39.3 12 A 103.026 103.026 0 0 0 27.438 19.889 A 80.565 80.565 0 0 0 18.8 27.6 A 2.692 2.692 0 0 1 19.167 27.524 Q 21.3 27.163 35.3 25.5 A 384.488 384.488 0 0 1 38.871 25.101 Q 40.501 24.927 41.952 24.789 A 215.424 215.424 0 0 1 42.9 24.7 A 84.053 84.053 0 0 1 45.263 24.517 Q 46.552 24.437 47.693 24.412 A 45.696 45.696 0 0 1 48.7 24.4 A 45.969 45.969 0 0 1 56.083 24.97 A 37.064 37.064 0 0 1 61.3 26.2 A 12.047 12.047 0 0 1 63.258 27.033 Q 64.235 27.566 64.876 28.225 A 4.123 4.123 0 0 1 66.1 31.2 A 5.029 5.029 0 0 1 65.098 34.183 Q 64.575 34.912 63.781 35.59 A 10.755 10.755 0 0 1 63.4 35.9 A 5.356 5.356 0 0 1 62.868 36.325 Q 62.251 36.752 61.72 36.795 A 1.466 1.466 0 0 1 61.6 36.8 A 0.919 0.919 0 0 1 61.197 36.717 Q 60.821 36.536 60.721 35.959 A 2.262 2.262 0 0 1 60.7 35.8 A 2.059 2.059 0 0 1 61.526 34.108 A 3.397 3.397 0 0 1 62.2 33.7 Q 62.844 33.378 63.142 32.97 A 1.277 1.277 0 0 0 63.4 32.2 A 2.252 2.252 0 0 0 62.602 30.497 Q 61.853 29.807 60.398 29.325 A 12.124 12.124 0 0 0 60 29.2 Q 53.5 27.2 45.6 27.2 A 38.664 38.664 0 0 0 43.65 27.256 Q 40.35 27.425 34.8 28.1 A 168.808 168.808 0 0 0 31.123 28.541 Q 28.92 28.828 26.45 29.2 Q 21.8 29.9 16.2 30.7 Q 7.1 43.1 7.1 51.1 A 10.009 10.009 0 0 0 8.466 56.46 Q 10.939 60.464 17.886 61.409 A 35.139 35.139 0 0 0 22.6 61.7 A 67.05 67.05 0 0 0 29.461 61.337 A 75.562 75.562 0 0 0 31.1 61.15 Q 35.5 60.6 40.1 59 L 55.3 53.9 A 89.177 89.177 0 0 0 61.625 51.505 Q 65.875 49.719 70.6 47.3 L 84.6 40 Q 85.163 39.679 85.661 39.616 A 1.903 1.903 0 0 1 85.9 39.6 Q 86.6 39.6 86.6 40.2 A 1.269 1.269 0 0 1 86.385 40.882 Q 86.11 41.317 85.486 41.751 A 6.789 6.789 0 0 1 85.1 42 A 1510.271 1510.271 0 0 1 81.887 43.852 Q 80.615 44.582 79.456 45.244 A 836.917 836.917 0 0 1 77.25 46.5 Q 73.9 48.4 71.6 49.6 Q 66.7 52.2 62.5 54.2 Q 58.3 56.2 54.6 57.6 Q 45.1 61.2 40.4 62.4 Q 32.2 64.4 23.7 64.4 A 29.634 29.634 0 0 1 16.938 63.668 A 21.195 21.195 0 0 1 8.4 59.6 A 16.101 16.101 0 0 1 4.165 54.507 A 15.464 15.464 0 0 1 2.5 47.3 A 20.491 20.491 0 0 1 4.099 39.554 Q 5.237 36.751 7.185 33.883 A 41.129 41.129 0 0 1 8.7 31.8 Z M 108.2 48.4 L 110.6 44.5 A 816.53 816.53 0 0 0 111.533 43.005 Q 112.169 41.981 112.9 40.8 A 604.094 604.094 0 0 1 114.114 38.848 Q 114.944 37.519 115.9 36 A 14.732 14.732 0 0 1 115.553 36.083 Q 115.103 36.184 114.87 36.198 A 1.162 1.162 0 0 1 114.8 36.2 A 1.753 1.753 0 0 1 114.378 36.154 Q 113.828 36.017 113.724 35.474 A 1.463 1.463 0 0 1 113.7 35.2 A 1.688 1.688 0 0 1 114.382 33.826 A 2.914 2.914 0 0 1 114.9 33.5 L 119.2 31.5 L 126.4 20.5 Q 127.837 18.438 129.04 16.825 A 79.487 79.487 0 0 1 130.4 15.05 A 30.681 30.681 0 0 1 131.424 13.819 Q 132.434 12.669 133.281 11.994 A 8.407 8.407 0 0 1 133.4 11.9 A 6.334 6.334 0 0 1 135.701 10.906 Q 136.566 10.713 137.566 10.701 A 11.117 11.117 0 0 1 137.7 10.7 A 6.449 6.449 0 0 1 138.109 10.712 Q 138.706 10.75 138.903 10.912 A 0.237 0.237 0 0 1 139 11.1 Q 139 11.3 138.6 11.6 Q 137.62 12.354 136.015 14.216 A 61.308 61.308 0 0 0 134.9 15.55 Q 132.5 18.5 128.9 23.5 L 124.5 30 A 52.348 52.348 0 0 1 127.951 28.647 Q 131.405 27.442 133.926 27.241 A 12.253 12.253 0 0 1 134.9 27.2 A 14.541 14.541 0 0 1 137.784 27.46 Q 142.255 28.369 142.741 32.457 A 8.845 8.845 0 0 1 142.8 33.5 A 11.163 11.163 0 0 1 142.773 34.262 A 12.957 12.957 0 0 1 142.75 34.55 Q 142.7 35.1 142.6 35.6 A 11.599 11.599 0 0 1 141.684 38.693 Q 141.106 39.986 140.2 41.3 A 23.421 23.421 0 0 0 141.663 41.169 Q 142.319 41.091 143.053 40.974 A 49.584 49.584 0 0 0 144.6 40.7 Q 147.2 40.2 150.3 39.8 Q 150.995 39.674 151.251 39.787 A 0.221 0.221 0 0 1 151.4 40 A 0.933 0.933 0 0 1 150.988 40.762 Q 150.385 41.222 148.9 41.4 L 136.5 44.6 A 34.491 34.491 0 0 1 131.494 47.803 A 44.929 44.929 0 0 1 126.9 49.9 A 38.709 38.709 0 0 1 122.583 51.424 Q 120.335 52.061 118.304 52.282 A 19.414 19.414 0 0 1 116.2 52.4 Q 114.26 52.4 113.888 51.747 A 0.688 0.688 0 0 1 113.8 51.4 A 1.496 1.496 0 0 1 114.151 50.472 Q 114.584 49.916 115.552 49.401 A 10.604 10.604 0 0 1 116.4 49 Q 119.2 47.8 122.2 46.7 A 166.996 166.996 0 0 1 126.514 45.188 A 197.239 197.239 0 0 1 128.6 44.5 Q 129.7 44.1 131.1 43.65 A 49.208 49.208 0 0 1 132.22 43.306 Q 132.717 43.159 133.261 43.008 A 86.69 86.69 0 0 1 134.4 42.7 A 11.551 11.551 0 0 0 138.2 35.128 A 16.245 16.245 0 0 0 138.3 33.3 A 5.22 5.22 0 0 0 138.148 31.981 Q 137.707 30.298 135.985 29.976 A 4.829 4.829 0 0 0 135.1 29.9 A 23.068 23.068 0 0 0 131.382 30.186 A 17.06 17.06 0 0 0 127.7 31.2 A 3.434 3.434 0 0 0 127.345 31.311 Q 127.169 31.376 126.978 31.465 A 6.472 6.472 0 0 0 126.8 31.55 L 125.5 32.2 Q 124.8 32.6 123.8 33.1 A 21.292 21.292 0 0 0 122.644 33.726 A 26.804 26.804 0 0 0 121.7 34.3 Q 116.3 42.3 111.2 50 Q 106.1 57.7 101.3 65.3 Q 95.029 75.244 93.574 79.73 A 11.886 11.886 0 0 0 93.3 80.7 Q 92.898 82.444 92.135 83.018 A 1.355 1.355 0 0 1 91.3 83.3 A 0.399 0.399 0 0 1 90.927 83.054 Q 90.828 82.86 90.806 82.512 A 3.366 3.366 0 0 1 90.8 82.3 Q 90.988 76.651 106.245 51.591 A 669.321 669.321 0 0 1 108.2 48.4 Z M 98 34.7 L 111.2 26.6 Q 111.898 26.201 112.397 26.2 A 1.16 1.16 0 0 1 112.4 26.2 A 1.052 1.052 0 0 1 112.623 26.222 Q 112.944 26.292 112.992 26.59 A 0.702 0.702 0 0 1 113 26.7 A 1.288 1.288 0 0 1 112.701 27.515 Q 112.453 27.828 112 28.1 Q 109.815 29.621 106.501 31.863 A 959.623 959.623 0 0 1 106.15 32.1 Q 103.71 33.75 100.536 35.873 A 2343.435 2343.435 0 0 1 97.5 37.9 L 95.8 45.7 Q 95.663 46.388 95.454 47.288 A 94.938 94.938 0 0 1 95.25 48.15 Q 94.949 49.396 94.538 50.975 A 240.095 240.095 0 0 1 94.4 51.5 Q 95.2 51.1 97.8 50.2 Q 99.791 49.511 102.954 48.412 A 9855.693 9855.693 0 0 0 105 47.7 Q 106.383 47.206 108.45 46.566 A 149.921 149.921 0 0 1 108.5 46.55 Q 109.944 46.103 111.766 45.633 A 112.693 112.693 0 0 1 113.5 45.2 Q 113.973 45.2 114.088 45.736 A 1.397 1.397 0 0 1 114.1 45.8 L 114.1 46 A 0.49 0.49 0 0 1 113.918 46.38 Q 113.77 46.51 113.5 46.6 A 96.871 96.871 0 0 0 104.883 49.301 Q 97.081 52.181 92.1 55.9 A 4.382 4.382 0 0 1 91.047 56.474 A 3.561 3.561 0 0 1 89.8 56.7 A 3.012 3.012 0 0 1 89.426 56.679 Q 89.04 56.63 88.859 56.47 A 0.471 0.471 0 0 1 88.7 56.1 A 1.159 1.159 0 0 1 88.806 55.625 Q 88.878 55.463 89 55.3 A 0.762 0.762 0 0 0 89.1 55.171 Q 89.261 54.919 89.45 54.35 Q 89.7 53.6 90.1 52.5 Q 90.8 50.4 91.9 46 Q 92.087 44.88 92.404 43.498 A 59.602 59.602 0 0 1 92.45 43.3 Q 92.8 41.8 93.2 40.1 A 181.347 181.347 0 0 0 77.822 52.148 A 165.705 165.705 0 0 0 75.8 53.95 Q 67.8 61.2 61.1 69.3 Q 60.4 70 60 70 Q 59.3 70 59.3 69.1 A 1.871 1.871 0 0 1 59.602 68.093 A 2.807 2.807 0 0 1 60 67.6 Q 66.9 59.4 75.15 52 A 169.404 169.404 0 0 1 91.893 38.828 A 185.266 185.266 0 0 1 93.1 38 Q 93.8 35.6 93.8 33.5 Q 93.8 30.787 92.487 31.05 A 1.563 1.563 0 0 0 92.3 31.1 Q 89.2 32.1 87 34.3 A 4.079 4.079 0 0 1 86.564 34.682 Q 86.016 35.093 85.518 35.1 A 1.228 1.228 0 0 1 85.5 35.1 Q 84.8 35.1 84.8 34.5 Q 84.8 34 85.5 33.3 A 5.388 5.388 0 0 1 86.358 32.645 Q 88.569 31.213 95.079 28.493 A 216.621 216.621 0 0 1 95.3 28.4 Q 96.62 27.872 97.475 27.809 A 3.044 3.044 0 0 1 97.7 27.8 A 1.743 1.743 0 0 1 98.288 27.891 Q 99.058 28.166 99.098 29.275 A 3.444 3.444 0 0 1 99.1 29.4 A 3.093 3.093 0 0 1 99.061 29.8 Q 98.925 30.75 98.303 33.418 A 225.327 225.327 0 0 1 98 34.7 Z M 251.5 36.5 L 255.1 32.8 Q 256.236 31.14 258.822 30.931 A 9.633 9.633 0 0 1 259.6 30.9 Q 260.4 30.9 260.4 31.3 L 260.1 31.8 Q 258.8 33.2 257.35 34.9 Q 255.9 36.6 254.3 38.7 A 66.146 66.146 0 0 0 252.839 40.636 Q 250.656 43.651 250.152 45.26 A 2.872 2.872 0 0 0 250 46.1 A 1.412 1.412 0 0 0 250.006 46.23 Q 250.017 46.357 250.054 46.434 A 0.241 0.241 0 0 0 250.1 46.5 L 269.5 32.4 A 9.022 9.022 0 0 1 272.327 30.945 A 8.215 8.215 0 0 1 274.7 30.6 A 3.135 3.135 0 0 1 275.279 30.649 Q 276.242 30.831 276.297 31.694 A 1.683 1.683 0 0 1 276.3 31.8 A 2.47 2.47 0 0 1 276.152 32.583 Q 275.779 33.683 274.466 35.365 A 25.518 25.518 0 0 1 274.2 35.7 A 5.047 5.047 0 0 0 273.591 36.546 Q 273.033 37.491 272.503 39.033 A 29.243 29.243 0 0 0 272.1 40.3 Q 271.1 43.4 271.1 46.3 Q 271.1 49.774 273.216 49.457 A 3.012 3.012 0 0 0 273.5 49.4 A 45.747 45.747 0 0 0 276.91 48.343 A 39.063 39.063 0 0 0 278.35 47.8 Q 280.6 46.9 282.4 45.6 A 3.904 3.904 0 0 1 283.16 45.201 A 2.876 2.876 0 0 1 284.2 45 A 0.917 0.917 0 0 1 284.383 45.017 Q 284.664 45.074 284.696 45.331 A 0.56 0.56 0 0 1 284.7 45.4 A 0.456 0.456 0 0 1 284.66 45.562 Q 284.515 45.92 283.848 46.741 A 20.575 20.575 0 0 1 283.8 46.8 A 5.09 5.09 0 0 1 282.905 47.628 Q 281.18 48.923 277.2 50.5 A 65.48 65.48 0 0 1 274.766 51.352 Q 271.243 52.5 269.5 52.5 A 5.328 5.328 0 0 1 267.933 52.29 Q 266.211 51.759 265.76 49.892 A 6.373 6.373 0 0 1 265.6 48.4 Q 265.6 45.213 268.771 38.389 A 87.136 87.136 0 0 1 269 37.9 Q 269.4 37.2 269.4 36.5 A 1.008 1.008 0 0 0 269.365 36.223 Q 269.276 35.913 268.959 35.83 A 1.031 1.031 0 0 0 268.7 35.8 Q 267.739 35.8 266.501 36.724 A 8.558 8.558 0 0 0 266.4 36.8 Q 262.4 39.6 259.25 42.1 A 101.172 101.172 0 0 0 257.021 43.919 Q 255.821 44.929 254.796 45.865 A 55.292 55.292 0 0 0 253.9 46.7 L 246.8 53.6 A 6.078 6.078 0 0 1 245.578 54.38 Q 244.965 54.68 244.219 54.906 A 12.208 12.208 0 0 1 243.5 55.1 A 1.89 1.89 0 0 1 242.91 55.2 A 1.801 1.801 0 0 1 242.9 55.2 L 242.4 55.2 A 2.352 2.352 0 0 1 241.966 55.164 Q 241.244 55.027 241.203 54.38 A 1.262 1.262 0 0 1 241.2 54.3 A 1.946 1.946 0 0 1 241.3 53.721 Q 241.547 52.938 242.4 51.8 A 6.109 6.109 0 0 0 242.72 51.383 Q 244.263 49.25 251.7 37.7 A 0.651 0.651 0 0 0 251.767 37.574 Q 251.837 37.391 251.759 37.208 A 0.667 0.667 0 0 0 251.7 37.1 A 1.02 1.02 0 0 1 251.586 36.967 Q 251.422 36.733 251.5 36.5 Z M 309.5 42.9 L 309.5 43.2 A 2.822 2.822 0 0 1 309.376 44.057 A 2.299 2.299 0 0 1 308.8 45 Q 307.655 45.955 305.553 47.182 A 49.452 49.452 0 0 1 305.35 47.3 A 94.974 94.974 0 0 1 303.515 48.331 Q 302.689 48.785 301.76 49.277 A 190.323 190.323 0 0 1 299.8 50.3 A 108.153 108.153 0 0 1 296.092 52.118 Q 290.704 54.621 287.9 55 Q 287.4 55.1 286.9 55.1 L 285.9 55.1 A 11.568 11.568 0 0 1 283.564 54.886 Q 279.5 54.044 279.5 49.9 A 7.933 7.933 0 0 1 279.615 48.599 Q 279.763 47.713 280.1 46.7 A 18.145 18.145 0 0 1 282.254 42.358 Q 284.517 38.935 288.6 35.4 Q 294.8 29.7 302.2 26.2 A 22.061 22.061 0 0 1 306.983 24.531 A 18.267 18.267 0 0 1 310.9 24.1 A 6.601 6.601 0 0 1 311.674 24.142 Q 312.452 24.234 312.833 24.533 A 0.926 0.926 0 0 1 313.2 25.3 Q 313.2 26.076 311.885 27.415 A 13.406 13.406 0 0 1 311.8 27.5 Q 310.5 28.7 310 28.4 A 9.06 9.06 0 0 0 308.335 27.754 A 6.951 6.951 0 0 0 306.5 27.5 A 7.662 7.662 0 0 0 303.744 28.028 A 9.408 9.408 0 0 0 302.9 28.4 Q 296.5 31.7 291.4 36.8 A 39.756 39.756 0 0 0 288.113 40.652 Q 286.59 42.705 285.598 44.71 A 19.727 19.727 0 0 0 284.6 47.1 Q 284.1 48.8 284.1 49.6 A 5.26 5.26 0 0 0 284.207 50.714 Q 284.618 52.6 286.6 52.6 Q 288.929 52.6 293.032 50.955 A 54.104 54.104 0 0 0 295.15 50.05 A 95.544 95.544 0 0 0 299.348 48.019 Q 301.5 46.918 303.939 45.563 A 228.568 228.568 0 0 0 309.1 42.6 A 0.415 0.415 0 0 1 309.157 42.585 Q 309.366 42.547 309.464 42.788 A 0.838 0.838 0 0 1 309.5 42.9 Z M 158.9 28.3 L 163.9 26.5 Q 168.63 24.924 169.087 24.998 A 0.153 0.153 0 0 1 169.1 25 Q 172.8 25.6 172.8 28.1 A 6.939 6.939 0 0 1 171.625 31.835 Q 169.792 34.736 165.1 37.6 A 38.951 38.951 0 0 1 160.954 39.815 Q 158.799 40.792 156.838 41.288 A 15.657 15.657 0 0 1 153 41.8 Q 152.5 41.8 152 41.75 Q 151.5 41.7 151 41.6 Q 150 43 149.2 44.2 A 18.642 18.642 0 0 0 148.435 45.447 A 14.285 14.285 0 0 0 147.9 46.5 A 13.778 13.778 0 0 0 147.478 47.629 Q 147.1 48.806 147.1 49.7 Q 147.1 52.659 149.27 52.965 A 3.795 3.795 0 0 0 149.8 53 Q 152.5 53 158.5 50.6 A 72.44 72.44 0 0 0 161.169 49.531 Q 163.568 48.51 165.071 47.61 A 11.586 11.586 0 0 0 166.4 46.7 A 4.5 4.5 0 0 1 166.878 46.438 Q 167.386 46.2 167.8 46.2 A 1.052 1.052 0 0 1 168.023 46.222 Q 168.344 46.292 168.392 46.59 A 0.702 0.702 0 0 1 168.4 46.7 A 1.236 1.236 0 0 1 168.238 47.122 Q 168.037 47.464 167.603 47.835 A 5.651 5.651 0 0 1 167.4 48 Q 165.9 49.1 163.95 50.25 Q 162 51.4 159.6 52.7 Q 153.66 55.524 150.944 55.598 A 5.282 5.282 0 0 1 150.8 55.6 A 10.082 10.082 0 0 1 147.996 55.225 A 8.353 8.353 0 0 1 145.45 54 A 6.687 6.687 0 0 1 144.276 52.956 Q 143.504 52.07 143.286 51.036 A 4.041 4.041 0 0 1 143.2 50.2 A 3.904 3.904 0 0 1 143.235 49.712 Q 143.302 49.193 143.493 48.45 A 22.6 22.6 0 0 1 143.7 47.7 Q 146.156 40.671 155.355 31.633 A 114.835 114.835 0 0 1 158.9 28.3 Z M 232.6 28.3 L 237.6 26.5 Q 242.33 24.924 242.787 24.998 A 0.153 0.153 0 0 1 242.8 25 Q 246.5 25.6 246.5 28.1 A 6.939 6.939 0 0 1 245.325 31.835 Q 243.492 34.736 238.8 37.6 A 38.951 38.951 0 0 1 234.654 39.815 Q 232.499 40.792 230.538 41.288 A 15.657 15.657 0 0 1 226.7 41.8 Q 226.2 41.8 225.7 41.75 Q 225.2 41.7 224.7 41.6 Q 223.7 43 222.9 44.2 A 18.642 18.642 0 0 0 222.135 45.447 A 14.285 14.285 0 0 0 221.6 46.5 A 13.778 13.778 0 0 0 221.178 47.629 Q 220.8 48.806 220.8 49.7 Q 220.8 52.659 222.97 52.965 A 3.795 3.795 0 0 0 223.5 53 Q 226.2 53 232.2 50.6 A 72.44 72.44 0 0 0 234.869 49.531 Q 237.268 48.51 238.771 47.61 A 11.586 11.586 0 0 0 240.1 46.7 A 4.5 4.5 0 0 1 240.578 46.438 Q 241.086 46.2 241.5 46.2 A 1.052 1.052 0 0 1 241.723 46.222 Q 242.044 46.292 242.092 46.59 A 0.702 0.702 0 0 1 242.1 46.7 A 1.236 1.236 0 0 1 241.938 47.122 Q 241.737 47.464 241.303 47.835 A 5.651 5.651 0 0 1 241.1 48 Q 239.6 49.1 237.65 50.25 Q 235.7 51.4 233.3 52.7 Q 227.36 55.524 224.644 55.598 A 5.282 5.282 0 0 1 224.5 55.6 A 10.082 10.082 0 0 1 221.696 55.225 A 8.353 8.353 0 0 1 219.15 54 A 6.687 6.687 0 0 1 217.976 52.956 Q 217.204 52.07 216.986 51.036 A 4.041 4.041 0 0 1 216.9 50.2 A 3.904 3.904 0 0 1 216.935 49.712 Q 217.002 49.193 217.193 48.45 A 22.6 22.6 0 0 1 217.4 47.7 Q 219.856 40.671 229.055 31.633 A 114.835 114.835 0 0 1 232.6 28.3 Z M 322.1 28.3 L 327.1 26.5 Q 331.83 24.924 332.287 24.998 A 0.153 0.153 0 0 1 332.3 25 Q 336 25.6 336 28.1 A 6.939 6.939 0 0 1 334.825 31.835 Q 332.992 34.736 328.3 37.6 A 38.951 38.951 0 0 1 324.154 39.815 Q 321.999 40.792 320.038 41.288 A 15.657 15.657 0 0 1 316.2 41.8 Q 315.7 41.8 315.2 41.75 Q 314.7 41.7 314.2 41.6 Q 313.2 43 312.4 44.2 A 18.642 18.642 0 0 0 311.635 45.447 A 14.285 14.285 0 0 0 311.1 46.5 A 13.778 13.778 0 0 0 310.678 47.629 Q 310.3 48.806 310.3 49.7 Q 310.3 52.659 312.47 52.965 A 3.795 3.795 0 0 0 313 53 Q 315.7 53 321.7 50.6 A 72.44 72.44 0 0 0 324.369 49.531 Q 326.768 48.51 328.271 47.61 A 11.586 11.586 0 0 0 329.6 46.7 A 4.5 4.5 0 0 1 330.078 46.438 Q 330.586 46.2 331 46.2 A 1.052 1.052 0 0 1 331.223 46.222 Q 331.544 46.292 331.592 46.59 A 0.702 0.702 0 0 1 331.6 46.7 A 1.236 1.236 0 0 1 331.438 47.122 Q 331.237 47.464 330.803 47.835 A 5.651 5.651 0 0 1 330.6 48 Q 329.1 49.1 327.15 50.25 Q 325.2 51.4 322.8 52.7 Q 316.86 55.524 314.144 55.598 A 5.282 5.282 0 0 1 314 55.6 A 10.082 10.082 0 0 1 311.196 55.225 A 8.353 8.353 0 0 1 308.65 54 A 6.687 6.687 0 0 1 307.476 52.956 Q 306.704 52.07 306.486 51.036 A 4.041 4.041 0 0 1 306.4 50.2 A 3.904 3.904 0 0 1 306.435 49.712 Q 306.502 49.193 306.693 48.45 A 22.6 22.6 0 0 1 306.9 47.7 Q 309.356 40.671 318.555 31.633 A 114.835 114.835 0 0 1 322.1 28.3 Z M 168.1 54.2 L 168.3 53.5 A 5.503 5.503 0 0 1 168.487 53.159 Q 168.594 52.979 168.725 52.782 A 10.518 10.518 0 0 1 168.85 52.6 Q 169.2 52.1 169.6 51.6 L 171.2 49.2 Q 171.5 48.8 172 48.15 Q 172.344 47.703 172.735 47.091 A 24.943 24.943 0 0 0 173.1 46.5 L 176.2 41.5 A 20.912 20.912 0 0 0 177.282 39.867 Q 178.413 37.99 179.627 35.289 A 68.72 68.72 0 0 0 179.8 34.9 Q 179.9 34.3 180 33.45 A 60.272 60.272 0 0 0 180.088 32.659 Q 180.144 32.119 180.2 31.5 Q 180.372 31.071 182.904 29.904 A 60.195 60.195 0 0 1 183.8 29.5 Q 187 27.9 188.3 27.9 A 1.246 1.246 0 0 1 188.47 27.911 Q 188.659 27.937 188.74 28.028 A 0.25 0.25 0 0 1 188.8 28.2 A 0.454 0.454 0 0 1 188.783 28.315 Q 188.733 28.5 188.544 28.826 A 6.085 6.085 0 0 1 188.5 28.9 Q 186.8 31.2 184.95 34.05 Q 183.1 36.9 181.1 40.2 L 187.7 34.7 Q 188.724 33.847 189.421 33.321 A 20.658 20.658 0 0 1 189.65 33.15 A 31.628 31.628 0 0 0 189.952 32.926 Q 190.444 32.556 190.6 32.4 A 40.764 40.764 0 0 1 194.835 29.822 Q 199.621 27.322 203.533 27.3 A 12.341 12.341 0 0 1 203.6 27.3 Q 204.3 27.3 204.3 28.7 Q 204.3 30.013 203.729 31.545 A 11.958 11.958 0 0 1 203.65 31.75 Q 203.226 32.827 202.738 33.201 A 0.874 0.874 0 0 1 202.2 33.4 Q 202 33.4 201.8 33.2 L 201.8 33 Q 201.8 32.8 201.85 32.6 A 1.248 1.248 0 0 0 201.874 32.472 Q 201.894 32.331 201.899 32.129 A 5.624 5.624 0 0 0 201.9 32 L 201.9 31.7 A 1.83 1.83 0 0 0 201.886 31.462 Q 201.852 31.207 201.738 31.093 A 0.322 0.322 0 0 0 201.5 31 A 17.07 17.07 0 0 0 195.406 32.242 Q 189.002 34.696 181.1 42 A 17.842 17.842 0 0 0 180.374 42.776 Q 179.531 43.725 178.5 45.1 A 94.567 94.567 0 0 0 177.319 46.713 Q 176.803 47.431 176.249 48.228 A 170.819 170.819 0 0 0 175.1 49.9 L 174.1 52.1 L 171.4 53.6 A 24.937 24.937 0 0 1 170.696 53.974 Q 169.569 54.548 168.977 54.668 A 1.409 1.409 0 0 1 168.7 54.7 A 1.052 1.052 0 0 1 168.477 54.679 Q 168.156 54.609 168.108 54.311 A 0.702 0.702 0 0 1 168.1 54.2 Z M 207.1 34.5 L 207.4 32.8 A 1.005 1.005 0 0 1 207.67 32.356 Q 208.438 31.538 211.3 30.3 A 21.997 21.997 0 0 1 212.65 29.701 Q 214.399 29 215.5 29 Q 216.3 29 216.1 29.6 Q 215.432 31.89 213.126 35.089 A 40.262 40.262 0 0 1 212.9 35.4 L 208 42.1 A 32.195 32.195 0 0 1 207.248 43.138 Q 206.556 44.056 205.65 45.15 A 96.135 96.135 0 0 0 204.499 46.568 Q 203.994 47.203 203.444 47.911 A 180.677 180.677 0 0 0 202.3 49.4 Q 202.464 49.319 202.927 49.137 A 37.08 37.08 0 0 1 203.15 49.05 Q 203.8 48.8 204.9 48.4 Q 205.656 48.125 206.649 47.779 A 238.498 238.498 0 0 1 207.6 47.45 A 131.089 131.089 0 0 1 208.885 47.017 Q 209.455 46.827 210.084 46.623 A 240.475 240.475 0 0 1 211.4 46.2 Q 212.783 45.706 214.85 45.066 A 149.921 149.921 0 0 1 214.9 45.05 Q 216.344 44.603 218.166 44.133 A 112.693 112.693 0 0 1 219.9 43.7 A 0.864 0.864 0 0 1 220.138 43.73 Q 220.5 43.834 220.5 44.3 L 220.5 44.5 A 0.49 0.49 0 0 1 220.318 44.88 Q 220.17 45.01 219.9 45.1 A 96.871 96.871 0 0 0 211.283 47.801 Q 203.481 50.681 198.5 54.4 Q 197.4 55.2 196.1 55.2 A 2.492 2.492 0 0 1 195.76 55.179 Q 195.383 55.127 195.221 54.945 A 0.5 0.5 0 0 1 195.1 54.6 Q 195.1 54.312 195.376 53.933 A 2.693 2.693 0 0 1 195.4 53.9 Q 196.2 52.6 197.25 51.1 Q 198.3 49.6 199.4 48 A 71.934 71.934 0 0 1 200.873 45.817 A 86.442 86.442 0 0 1 201.85 44.45 A 109.399 109.399 0 0 0 203.86 41.598 A 126.415 126.415 0 0 0 204.6 40.5 A 23.859 23.859 0 0 0 205.598 39.006 Q 206.523 37.493 206.875 36.288 A 6.688 6.688 0 0 0 206.9 36.2 A 3.4 3.4 0 0 0 206.996 35.531 A 3.918 3.918 0 0 0 207 35.35 Q 207 34.9 207.1 34.5 Z M 161.659 37.455 A 20.119 20.119 0 0 0 163.7 35.7 A 25.592 25.592 0 0 0 165.273 33.99 Q 167.5 31.314 167.5 29.4 Q 167.5 28 166.2 27.9 A 3.182 3.182 0 0 0 165.688 27.86 Q 161.985 27.86 155.43 35.881 A 89.311 89.311 0 0 0 153.3 38.6 Q 154.3 39.6 156.1 39.6 Q 158.77 39.6 161.659 37.455 Z M 235.359 37.455 A 20.119 20.119 0 0 0 237.4 35.7 A 25.592 25.592 0 0 0 238.973 33.99 Q 241.2 31.314 241.2 29.4 Q 241.2 28 239.9 27.9 A 3.182 3.182 0 0 0 239.388 27.86 Q 235.685 27.86 229.13 35.881 A 89.311 89.311 0 0 0 227 38.6 Q 228 39.6 229.8 39.6 Q 232.47 39.6 235.359 37.455 Z M 324.859 37.455 A 20.119 20.119 0 0 0 326.9 35.7 A 25.592 25.592 0 0 0 328.473 33.99 Q 330.7 31.314 330.7 29.4 Q 330.7 28 329.4 27.9 A 3.182 3.182 0 0 0 328.888 27.86 Q 325.185 27.86 318.63 35.881 A 89.311 89.311 0 0 0 316.5 38.6 Q 317.5 39.6 319.3 39.6 Q 321.97 39.6 324.859 37.455 Z M 216.725 16.181 A 0.693 0.693 0 0 0 217.1 16.3 A 4.191 4.191 0 0 0 217.376 16.291 Q 217.743 16.267 218.034 16.176 A 1.447 1.447 0 0 0 219.05 15.2 Q 219.263 14.53 219.532 14.045 A 3.509 3.509 0 0 1 219.9 13.5 A 18.591 18.591 0 0 0 220.201 13.002 Q 220.482 12.52 220.65 12.15 A 3.035 3.035 0 0 0 220.817 11.695 A 2.252 2.252 0 0 0 220.9 11.1 Q 220.9 10.8 220.3 10.8 Q 219.85 10.8 219.091 11.081 A 10.566 10.566 0 0 0 218.55 11.3 A 9.382 9.382 0 0 0 218.267 11.429 A 8.316 8.316 0 0 0 216.5 12.55 Q 216.048 12.927 215.823 13.316 A 1.551 1.551 0 0 0 215.6 14.1 A 1.205 1.205 0 0 0 215.615 14.283 Q 215.686 14.747 216.1 15.45 A 3.853 3.853 0 0 0 216.239 15.67 Q 216.482 16.026 216.725 16.181 Z"/>
  </g>
</svg>
