<svg xmlns="http://www.w3.org/2000/svg" width="20.09" height="19.462" viewBox="0 0 20.09 19.462">
  <path id="github-svgrepo-com" d="M10.045,0A9.916,9.916,0,0,0,0,10.045c0,6.592,5.964,9.417,6.906,9.417.628,0,.628-.314.628-.628v-1.57c-2.2.628-3.139-.628-3.453-1.57,0,0,0-.314-.628-.942-.314-.314-1.57-.942-.314-.942.942,0,1.57,1.256,1.57,1.256a2.142,2.142,0,0,0,2.825.628,2.192,2.192,0,0,1,.628-1.256c-2.511-.314-4.395-1.256-4.395-4.709a3.837,3.837,0,0,1,.942-2.825,3.667,3.667,0,0,1,0-2.825A4.354,4.354,0,0,1,7.534,5.336a6.932,6.932,0,0,1,5.022,0,4.354,4.354,0,0,1,2.825-1.256c.628,2.2,0,2.825,0,2.825a3.837,3.837,0,0,1,.942,2.825c0,3.453-2.2,4.395-4.395,4.709a2.654,2.654,0,0,1,.628,1.883v2.511c0,.314,0,.628.628.628.942,0,6.906-2.825,6.906-9.417A9.916,9.916,0,0,0,10.045,0Z"/>
</svg>
