<svg xmlns="http://www.w3.org/2000/svg" width="19.499" height="19.499" viewBox="0 0 19.499 19.499">
  <g id="linkedin-svgrepo-com" transform="translate(0 0.001)">
    <circle id="Ellipse_1" data-name="Ellipse 1" cx="9.749" cy="9.749" r="9.749" transform="translate(0 -0.001)" fill="#007ab9"/>
    <g id="Group_1" data-name="Group 1" transform="translate(4.704 4.165)">
      <path id="Path_1" data-name="Path 1" d="M37.938,30.337v4.019h-2.33v-3.75c0-.942-.336-1.585-1.18-1.585a1.275,1.275,0,0,0-1.2.852,1.6,1.6,0,0,0-.077.568v3.914H30.825s.031-6.351,0-7.009h2.331v.993c0,.008-.011.015-.015.023h.015v-.023a2.314,2.314,0,0,1,2.1-1.158c1.533,0,2.683,1,2.683,3.154Zm-9.552-6.368a1.214,1.214,0,1,0-.031,2.422h.015a1.215,1.215,0,1,0,.015-2.422Zm-1.18,10.387h2.33V27.347h-2.33Z" transform="translate(-27.068 -23.969)" fill="#f1f2f2"/>
    </g>
  </g>
</svg>
