<svg xmlns="http://www.w3.org/2000/svg" width="19.824" height="19.821" viewBox="0 0 19.824 19.821">
  <path fill="#444" id="phone-svgrepo-com_2_" data-name="phone-svgrepo-com (2)" d="M19.611,15.036c-.738-1.4-3.3-2.908-3.413-2.974a2.036,2.036,0,0,0-.994-.287,1.237,1.237,0,0,0-1.107.617,12.257,12.257,0,0,1-.953,1.054,1.584,1.584,0,0,1-2.313-.231L6.61,8.994a1.59,1.59,0,0,1-.232-2.312,12.378,12.378,0,0,1,1.055-.954A1.222,1.222,0,0,0,8,5a1.817,1.817,0,0,0-.24-1.371C7.7,3.515,6.184.952,4.79.215a1.813,1.813,0,0,0-2.13.32l-.933.932A5.1,5.1,0,0,0,.139,6.436a10.51,10.51,0,0,0,3.044,4.8l5.4,5.4c2.112,2.112,4.125,3.183,5.984,3.183h0A5.292,5.292,0,0,0,18.358,18.1l.932-.932A1.8,1.8,0,0,0,19.611,15.036Z" transform="translate(0 -0.004)"/>
</svg>
