<svg width="402.401" height="77.301" viewBox="0 0 402.401 77.301" xmlns="http://www.w3.org/2000/svg">
  <g id="svgGroup" stroke-linecap="round" fill-rule="evenodd" font-size="9pt" stroke="#000" stroke-width="0.25mm"
     fill="none" style="stroke:#000;stroke-width:0.25mm;fill:none">
    <path
      d="M 188.501 53.9 L 202.301 43.7 A 214.906 214.906 0 0 0 207.458 34.419 A 188.985 188.985 0 0 0 209.001 31.4 A 257.049 257.049 0 0 0 212.843 23.387 A 217.241 217.241 0 0 0 214.401 19.9 L 217.201 13.5 A 20.951 20.951 0 0 0 218.02 11.555 Q 218.373 10.574 218.569 9.666 A 12.06 12.06 0 0 0 218.651 9.25 Q 218.887 7.94 218.964 6.923 A 12.251 12.251 0 0 0 219.001 6 A 4.225 4.225 0 0 0 218.628 4.159 Q 217.595 2 213.701 2 A 17.969 17.969 0 0 0 210.576 2.309 Q 207.438 2.868 203.2 4.442 A 82.657 82.657 0 0 0 200.501 5.5 A 93.274 93.274 0 0 0 195.776 7.657 A 81.036 81.036 0 0 0 194.301 8.4 A 53.569 53.569 0 0 0 189.853 10.97 A 47.804 47.804 0 0 0 188.901 11.6 A 57.199 57.199 0 0 0 184.48 14.821 Q 181.551 17.163 178.401 20.2 Q 171.942 26.66 171.618 30.503 A 4.742 4.742 0 0 0 171.601 30.9 Q 171.601 33.711 176.167 33.888 A 16.382 16.382 0 0 0 176.801 33.9 L 177.301 33.9 Q 178.168 33.9 178.2 34.457 A 0.758 0.758 0 0 1 178.201 34.5 Q 178.201 35.6 175.801 35.6 Q 171.801 35.6 169.501 34 A 5.841 5.841 0 0 1 168.122 32.69 A 4.728 4.728 0 0 1 167.201 29.8 Q 167.201 29.5 167.251 29.2 Q 167.301 28.9 167.401 28.5 A 7.637 7.637 0 0 1 168.176 26.607 Q 169.735 23.778 174.047 19.527 A 86.111 86.111 0 0 1 175.001 18.6 Q 179.916 13.935 184.276 10.867 A 53.357 53.357 0 0 1 186.001 9.7 A 85.793 85.793 0 0 1 194.623 4.796 Q 204.385 0.021 212.235 0 A 25.86 25.86 0 0 1 212.301 0 Q 216.901 0 219.701 2.1 A 6.824 6.824 0 0 1 222.419 6.881 A 10.152 10.152 0 0 1 222.501 8.2 Q 222.501 16.548 211.662 34.96 A 232.79 232.79 0 0 1 209.901 37.9 A 262.432 262.432 0 0 1 211.92 36.428 Q 215.126 34.113 219.401 31.15 Q 225.101 27.2 232.801 22.2 Q 238.925 14.348 243.595 11.322 A 12.669 12.669 0 0 1 247.001 9.7 Q 248.201 9.3 249.701 9.3 A 5.075 5.075 0 0 1 250.415 9.346 Q 251.801 9.544 251.801 10.6 A 2.386 2.386 0 0 1 251.597 11.496 Q 251.086 12.738 249.299 14.596 A 29.277 29.277 0 0 1 248.901 15 Q 248.6 15.302 247.929 15.831 A 36.86 36.86 0 0 1 247.451 16.2 A 29.107 29.107 0 0 1 246.653 16.786 Q 246.235 17.082 245.747 17.411 A 67.775 67.775 0 0 1 244.701 18.1 A 581.578 581.578 0 0 1 243.335 18.982 Q 242.728 19.372 242.057 19.802 A 1085.517 1085.517 0 0 1 240.651 20.7 A 1490.851 1490.851 0 0 1 238.305 22.194 Q 237.071 22.979 235.697 23.85 A 2488.115 2488.115 0 0 1 235.301 24.1 Q 231.301 28.6 226.901 37 A 49.261 49.261 0 0 0 224.378 42.363 Q 223.275 45.163 222.758 47.708 A 21.568 21.568 0 0 0 222.301 52 A 14.578 14.578 0 0 0 222.608 55.089 Q 223.237 57.986 225.151 59.8 A 9.769 9.769 0 0 0 231.346 62.466 A 12.955 12.955 0 0 0 232.301 62.5 A 19.76 19.76 0 0 0 238.381 61.452 Q 244.247 59.55 251.401 54.2 Q 262.501 45.9 270.201 34.4 A 139.256 139.256 0 0 0 273.903 28.541 Q 279.005 19.958 279.618 15.299 A 9.218 9.218 0 0 0 279.701 14.1 A 5.181 5.181 0 0 0 279.478 12.51 Q 278.937 10.832 277.083 10.373 A 6.603 6.603 0 0 0 275.501 10.2 Q 274.354 10.2 272.213 10.668 A 48.733 48.733 0 0 0 270.801 11 A 0.67 0.67 0 0 1 270.67 11.048 Q 270.465 11.1 270.101 11.1 Q 269.201 11.1 269.201 10.4 Q 269.201 9.442 270.672 8.85 A 5.937 5.937 0 0 1 270.801 8.8 Q 272.573 8.275 273.958 8.095 A 10.443 10.443 0 0 1 275.301 8 A 8.307 8.307 0 0 1 278.186 8.46 Q 281.843 9.811 282.084 15.13 A 17.025 17.025 0 0 1 282.101 15.9 A 22.079 22.079 0 0 1 281.199 21.861 Q 279.665 27.308 275.526 34.057 A 87.833 87.833 0 0 1 274.101 36.3 Q 270.101 42.4 264.951 47.45 Q 259.801 52.5 253.601 56.6 Q 248.234 60.178 243.467 62.076 A 37.753 37.753 0 0 1 242.351 62.5 A 34.518 34.518 0 0 1 237.671 63.848 Q 235.027 64.4 232.601 64.4 A 16.105 16.105 0 0 1 228.055 63.784 A 13.142 13.142 0 0 1 223.601 61.5 Q 219.401 58.2 219.401 51.7 A 23.791 23.791 0 0 1 220.062 46.356 Q 220.658 43.783 221.788 40.908 A 60.104 60.104 0 0 1 224.201 35.6 Q 225.301 33.6 226.351 31.75 Q 227.401 29.9 228.501 28.3 A 358.569 358.569 0 0 0 219.87 33.701 Q 216.061 36.167 212.844 38.416 A 148.42 148.42 0 0 0 207.001 42.7 Q 203.478 48.2 200.398 52.445 A 136.712 136.712 0 0 1 199.401 53.8 Q 195.901 58.5 193.001 61.4 Q 185.801 69 180.701 69 A 4.727 4.727 0 0 1 179.752 68.914 Q 178.101 68.574 178.101 66.9 Q 178.101 66.42 178.421 65.556 A 12.262 12.262 0 0 1 178.601 65.1 Q 181.701 59.6 188.501 53.9 Z M 58.701 54.2 L 59.401 54.1 A 2.935 2.935 0 0 1 59.73 54.039 Q 59.906 54.016 60.11 54.007 A 6.327 6.327 0 0 1 60.401 54 L 61.801 54 L 62.301 54 Q 63.168 54 63.2 54.557 A 0.758 0.758 0 0 1 63.201 54.6 A 0.86 0.86 0 0 1 62.711 55.384 Q 62.324 55.602 61.632 55.675 A 6.332 6.332 0 0 1 61.301 55.7 Q 60.801 55.8 60.201 55.8 Q 59.601 55.8 59.001 55.9 L 56.401 56.2 A 87.781 87.781 0 0 1 47.258 62.469 A 104.869 104.869 0 0 1 42.601 65.1 Q 34.901 69.2 25.301 72.6 A 153.048 153.048 0 0 1 18.989 74.657 Q 10.176 77.3 5.301 77.3 A 14.466 14.466 0 0 1 3.5 77.198 Q 0.001 76.757 0.001 74.4 A 10.274 10.274 0 0 1 0.005 74.121 Q 0.017 73.692 0.067 73.496 A 0.499 0.499 0 0 1 0.101 73.4 Q 0.694 71.229 8.982 66.817 A 109.427 109.427 0 0 1 9.201 66.7 Q 17.601 62.3 25.501 60.4 Q 32.701 58.7 39.301 57.35 Q 45.901 56 52.001 55.1 A 35.266 35.266 0 0 0 55.541 51.871 Q 57.175 50.143 58.258 48.416 A 14.238 14.238 0 0 0 60.001 44.5 A 9.381 9.381 0 0 0 60.206 43.576 Q 60.288 43.087 60.3 42.644 A 5.545 5.545 0 0 0 60.301 42.5 Q 60.301 39.093 56.179 37.441 A 14.555 14.555 0 0 0 54.901 37 Q 53.535 36.573 46.404 35.562 A 547.342 547.342 0 0 0 43.801 35.2 Q 35.037 34.005 31.629 32.513 A 11.399 11.399 0 0 1 31.601 32.5 A 10.642 10.642 0 0 1 29.6 31.337 Q 27.201 29.532 27.201 26.8 A 7.933 7.933 0 0 1 27.316 25.499 Q 27.464 24.613 27.801 23.6 A 14.929 14.929 0 0 1 30.362 19.011 Q 33.36 15.206 39.295 11.291 A 77.146 77.146 0 0 1 43.001 9 Q 56.115 1.336 68.204 0.749 A 41.199 41.199 0 0 1 70.201 0.7 A 24.972 24.972 0 0 1 73.43 0.89 Q 76.883 1.343 78.435 2.877 A 4.336 4.336 0 0 1 79.701 6.1 Q 79.701 8.9 77.001 13.1 A 10.776 10.776 0 0 1 76.571 13.721 Q 75.905 14.606 75.411 14.765 A 0.681 0.681 0 0 1 75.201 14.8 A 0.315 0.315 0 0 1 75.063 14.772 Q 74.93 14.708 74.906 14.498 A 0.875 0.875 0 0 1 74.901 14.4 Q 74.901 13.9 75.501 12.9 A 12.975 12.975 0 0 0 76.292 11.449 Q 76.658 10.654 76.835 9.921 A 5.62 5.62 0 0 0 77.001 8.6 A 3.947 3.947 0 0 0 74.492 4.829 Q 72.671 3.963 69.529 3.826 A 28.21 28.21 0 0 0 68.301 3.8 Q 62.801 3.8 57.651 5.05 Q 52.501 6.3 47.501 8.6 Q 38.151 13.099 33.859 20.087 A 23.75 23.75 0 0 0 32.801 22 Q 32.211 23.18 32.008 24.146 A 4.644 4.644 0 0 0 31.901 25.1 Q 31.901 29.8 45.001 31.8 A 272.886 272.886 0 0 1 49.633 32.487 Q 56.569 33.582 59.401 34.5 A 21.675 21.675 0 0 1 61.851 35.422 Q 66.114 37.356 66.114 40.283 A 4.141 4.141 0 0 1 66.101 40.6 A 11.239 11.239 0 0 1 66.113 41.103 Q 66.113 45.99 61.867 50.982 A 33.446 33.446 0 0 1 58.701 54.2 Z M 359.001 43.4 L 354.601 44.9 A 55.396 55.396 0 0 0 354.1 49.474 A 44.571 44.571 0 0 0 354.001 52.4 A 41.233 41.233 0 0 0 354.078 54.949 A 37.329 37.329 0 0 0 354.101 55.3 Q 354.201 56.7 354.501 57.9 A 6.126 6.126 0 0 0 354.713 58.813 Q 355.226 60.4 356.501 60.4 A 5.732 5.732 0 0 0 356.745 60.396 Q 357.11 60.38 357.272 60.313 A 0.429 0.429 0 0 0 357.301 60.3 A 24.089 24.089 0 0 0 359.136 59.601 A 30.086 30.086 0 0 0 360.451 59 Q 362.101 58.2 363.801 57.3 L 369.501 54.3 Q 369.501 54.825 369.12 56.189 A 32.539 32.539 0 0 1 369.001 56.6 Q 368.201 57 367.451 57.4 A 24.914 24.914 0 0 0 366.397 57.998 A 29.11 29.11 0 0 0 365.901 58.3 Q 365.201 58.7 364.401 59.15 Q 363.601 59.6 362.801 60.1 Q 358.701 62.4 355.401 63.1 Q 354.501 63.4 353.201 62.65 A 7.664 7.664 0 0 1 351.532 61.335 A 9.506 9.506 0 0 1 350.851 60.55 Q 349.801 59.2 349.501 57.6 Q 349.401 56.5 349.351 55.3 Q 349.301 54.1 349.301 52.7 Q 349.301 51.3 349.351 49.7 A 118.756 118.756 0 0 1 349.477 46.824 A 130.218 130.218 0 0 1 349.501 46.4 A 102.227 102.227 0 0 0 342.878 51.694 Q 339.821 54.368 337.441 56.971 A 47.382 47.382 0 0 0 334.501 60.5 A 6.694 6.694 0 0 1 333.706 61.308 Q 333.267 61.689 332.709 62.069 A 16.18 16.18 0 0 1 331.701 62.7 A 12.767 12.767 0 0 1 330.695 63.229 Q 329.677 63.702 328.909 63.784 A 2.926 2.926 0 0 1 328.601 63.8 A 1.83 1.83 0 0 1 328.364 63.786 Q 328.108 63.753 327.994 63.638 A 0.322 0.322 0 0 1 327.901 63.4 A 1.412 1.412 0 0 1 327.907 63.271 Q 327.919 63.143 327.956 63.067 A 0.241 0.241 0 0 1 328.001 63 Q 343.753 32.729 357.723 17.713 A 81.724 81.724 0 0 1 361.501 13.9 A 23.566 23.566 0 0 1 368.461 9.202 A 21.124 21.124 0 0 1 376.901 7.5 A 16.214 16.214 0 0 1 380.192 7.819 A 12.207 12.207 0 0 1 383.501 9 Q 383.783 9.113 383.906 9.289 A 0.53 0.53 0 0 1 384.001 9.6 A 1.127 1.127 0 0 1 383.782 10.21 Q 383.267 10.989 381.538 12.052 A 25.882 25.882 0 0 1 380.601 12.6 A 9.952 9.952 0 0 0 377.28 10.676 A 9.308 9.308 0 0 0 374.301 10.2 Q 368.301 10.2 361.601 16.6 Q 355.088 22.592 342.693 43.817 A 536.739 536.739 0 0 0 338.801 50.6 A 1.652 1.652 0 0 0 338.789 50.687 Q 338.731 51.2 339.101 51.2 Q 339.625 51.2 346.085 46.177 A 509.272 509.272 0 0 0 348.101 44.6 Q 348.476 44.413 348.851 44.05 A 4.421 4.421 0 0 0 348.901 44 A 5.087 5.087 0 0 1 349.171 43.75 A 6.126 6.126 0 0 1 349.351 43.6 A 2.723 2.723 0 0 1 349.579 43.438 Q 349.764 43.319 350.001 43.2 A 11.317 11.317 0 0 1 350.131 41.403 Q 350.665 38.1 353.401 38.1 A 4.356 4.356 0 0 1 354.142 38.158 Q 355.467 38.387 355.501 39.54 A 2.078 2.078 0 0 1 355.501 39.6 A 86.808 86.808 0 0 1 357.949 38.152 Q 359.212 37.431 360.635 36.666 A 149.552 149.552 0 0 1 361.601 36.15 A 183.773 183.773 0 0 1 364.874 34.465 Q 366.554 33.62 368.429 32.712 A 312.076 312.076 0 0 1 369.701 32.1 A 9.831 9.831 0 0 1 369.976 32.91 Q 370.201 33.696 370.201 34.3 A 4.986 4.986 0 0 1 369.239 37.186 Q 368.679 37.992 367.793 38.758 A 14.261 14.261 0 0 1 366.101 40 A 16.548 16.548 0 0 1 365.331 40.505 Q 364.517 41.01 363.401 41.6 A 20.293 20.293 0 0 1 361.986 42.275 Q 361.256 42.592 360.403 42.908 A 44.534 44.534 0 0 1 359.001 43.4 Z M 120.301 35.2 L 127.201 23.6 Q 129.601 19.5 131.801 16.85 Q 133.953 14.259 135.53 12.863 A 16.912 16.912 0 0 1 135.601 12.8 Q 136.301 12.1 138.101 12.1 A 3.83 3.83 0 0 1 138.645 12.135 Q 139.701 12.288 139.701 13.1 Q 139.701 13.829 138.954 14.808 A 7.393 7.393 0 0 1 138.801 15 A 90.829 90.829 0 0 0 137.46 16.839 Q 134.355 21.177 126.139 33.115 A 5224.183 5224.183 0 0 0 122.301 38.7 A 38.189 38.189 0 0 0 121.592 40.206 Q 121.245 40.982 120.889 41.857 A 65.385 65.385 0 0 0 120.651 42.45 Q 119.815 44.566 118.833 47.215 A 324.45 324.45 0 0 0 118.801 47.3 A 80.622 80.622 0 0 0 117.62 50.869 Q 116.101 55.875 116.101 58.8 Q 116.101 60.875 116.928 61.71 A 1.795 1.795 0 0 0 117.501 62.1 Q 118.024 62.187 118.091 62.654 A 1.025 1.025 0 0 1 118.101 62.8 A 1.49 1.49 0 0 1 117.936 63.523 Q 117.513 64.3 116.001 64.3 Q 114.801 64.3 114.001 63.1 Q 113.133 61.759 112.95 59.67 A 13.41 13.41 0 0 1 112.901 58.5 Q 112.901 53.884 115.784 46.233 A 91.052 91.052 0 0 1 116.701 43.9 A 260.073 260.073 0 0 1 109.386 50.38 Q 99.247 58.998 93.27 61.777 A 23.771 23.771 0 0 1 93.001 61.9 Q 91.555 62.52 90.393 62.713 A 6.066 6.066 0 0 1 89.401 62.8 A 4.34 4.34 0 0 1 88.271 62.666 Q 86.792 62.266 86.549 60.673 A 4.466 4.466 0 0 1 86.501 60 A 5.459 5.459 0 0 1 86.679 58.663 Q 86.923 57.699 87.501 56.6 Q 91.201 49.8 99.401 42.8 A 71.553 71.553 0 0 1 103.957 39.2 Q 111.031 34.1 115.701 34.1 A 10.464 10.464 0 0 1 118.223 34.393 A 8.562 8.562 0 0 1 120.301 35.2 Z M 367.351 61.8 A 32.702 32.702 0 0 0 368.472 61.883 Q 370.486 62 373.701 62 A 75.849 75.849 0 0 0 374.247 61.998 Q 380.027 61.957 383.036 61.024 A 7.646 7.646 0 0 0 384.901 60.2 Q 385.356 60.049 385.753 59.352 A 5.214 5.214 0 0 0 386.001 58.85 Q 386.501 57.7 387.401 57.4 Q 387.88 57.201 388.167 56.938 A 1.231 1.231 0 0 0 388.601 56 Q 388.601 55.4 387.901 55.4 Q 387.501 55.4 386.901 55.7 A 13.117 13.117 0 0 1 386.174 55.862 Q 385.83 55.927 385.528 55.962 A 5.549 5.549 0 0 1 384.901 56 Q 384.82 55.838 384.277 54.949 A 184.294 184.294 0 0 0 384.001 54.5 A 30.775 30.775 0 0 1 383.737 54.096 Q 383.597 53.879 383.443 53.633 A 65.038 65.038 0 0 1 383.051 53 Q 382.501 52.1 381.801 51 Q 380.112 48.43 379.664 46.83 A 3.867 3.867 0 0 1 379.501 45.8 A 9.084 9.084 0 0 1 381.612 39.792 A 11.812 11.812 0 0 1 384.401 37.4 A 16.378 16.378 0 0 1 387.561 35.841 A 17.761 17.761 0 0 1 393.701 34.8 Q 394.901 34.8 396.501 35.2 A 298.885 298.885 0 0 0 396.751 35.256 Q 397.118 35.337 397.451 35.409 A 176.091 176.091 0 0 0 398.101 35.55 A 11.44 11.44 0 0 0 398.234 35.578 Q 398.632 35.658 398.924 35.686 A 2.974 2.974 0 0 0 399.201 35.7 Q 402.401 35.2 402.401 33.3 A 1.506 1.506 0 0 0 401.565 31.947 Q 400.461 31.3 397.901 31.3 Q 388.501 31.3 380.801 37 A 17.861 17.861 0 0 0 377.998 39.546 A 11.311 11.311 0 0 0 375.001 47.2 A 1.958 1.958 0 0 0 375.03 47.524 Q 375.299 49.127 378.101 52.2 A 56.22 56.22 0 0 1 378.18 52.287 Q 381.201 55.614 381.201 56.7 A 1.213 1.213 0 0 1 381.201 56.725 Q 381.191 57.203 380.801 57.3 A 66.503 66.503 0 0 1 379.879 57.562 Q 373.221 59.4 367.701 59.4 Q 365.626 59.4 364.856 59.875 A 0.832 0.832 0 0 0 364.401 60.6 Q 364.401 60.907 364.753 61.271 A 3.113 3.113 0 0 0 365.001 61.5 Q 365.176 61.588 366.844 61.752 A 96.554 96.554 0 0 0 367.351 61.8 Z M 140.001 36.1 L 145.001 34.3 Q 149.731 32.724 150.189 32.798 A 0.153 0.153 0 0 1 150.201 32.8 Q 153.901 33.4 153.901 35.9 A 6.939 6.939 0 0 1 152.726 39.635 Q 150.894 42.536 146.201 45.4 A 38.951 38.951 0 0 1 142.055 47.615 Q 139.9 48.592 137.939 49.088 A 15.657 15.657 0 0 1 134.101 49.6 Q 133.601 49.6 133.101 49.55 Q 132.601 49.5 132.101 49.4 Q 131.101 50.8 130.301 52 A 18.642 18.642 0 0 0 129.536 53.247 A 14.285 14.285 0 0 0 129.001 54.3 A 13.778 13.778 0 0 0 128.58 55.429 Q 128.201 56.607 128.201 57.5 Q 128.201 60.459 130.372 60.765 A 3.795 3.795 0 0 0 130.901 60.8 Q 133.601 60.8 139.601 58.4 A 72.44 72.44 0 0 0 142.27 57.332 Q 144.67 56.31 146.173 55.41 A 11.586 11.586 0 0 0 147.501 54.5 A 4.5 4.5 0 0 1 147.979 54.238 Q 148.488 54 148.901 54 A 1.052 1.052 0 0 1 149.124 54.022 Q 149.446 54.092 149.493 54.39 A 0.702 0.702 0 0 1 149.501 54.5 A 1.236 1.236 0 0 1 149.34 54.922 Q 149.138 55.264 148.704 55.635 A 5.651 5.651 0 0 1 148.501 55.8 Q 147.001 56.9 145.051 58.05 Q 143.101 59.2 140.701 60.5 Q 134.761 63.324 132.045 63.398 A 5.282 5.282 0 0 1 131.901 63.4 A 10.082 10.082 0 0 1 129.098 63.025 A 8.353 8.353 0 0 1 126.551 61.8 A 6.687 6.687 0 0 1 125.377 60.756 Q 124.605 59.87 124.387 58.836 A 4.041 4.041 0 0 1 124.301 58 A 3.904 3.904 0 0 1 124.337 57.512 Q 124.403 56.993 124.594 56.25 A 22.6 22.6 0 0 1 124.801 55.5 Q 127.257 48.471 136.456 39.433 A 114.835 114.835 0 0 1 140.001 36.1 Z M 300.701 62 L 300.901 61.3 A 5.503 5.503 0 0 1 301.089 60.959 Q 301.195 60.779 301.327 60.582 A 10.518 10.518 0 0 1 301.451 60.4 Q 301.801 59.9 302.201 59.4 L 303.801 57 Q 304.101 56.6 304.601 55.95 Q 304.945 55.503 305.336 54.891 A 24.943 24.943 0 0 0 305.701 54.3 L 308.801 49.3 A 20.912 20.912 0 0 0 309.883 47.668 Q 311.015 45.79 312.228 43.089 A 68.72 68.72 0 0 0 312.401 42.7 Q 312.501 42.1 312.601 41.25 A 60.272 60.272 0 0 0 312.689 40.459 Q 312.745 39.919 312.801 39.3 Q 312.973 38.871 315.505 37.704 A 60.195 60.195 0 0 1 316.401 37.3 Q 319.601 35.7 320.901 35.7 A 1.246 1.246 0 0 1 321.071 35.711 Q 321.26 35.737 321.341 35.828 A 0.25 0.25 0 0 1 321.401 36 A 0.454 0.454 0 0 1 321.384 36.115 Q 321.334 36.301 321.145 36.626 A 6.085 6.085 0 0 1 321.101 36.7 Q 319.401 39 317.551 41.85 Q 315.701 44.7 313.701 48 L 320.301 42.5 Q 321.326 41.647 322.022 41.121 A 20.658 20.658 0 0 1 322.251 40.95 A 31.628 31.628 0 0 0 322.553 40.726 Q 323.045 40.357 323.201 40.2 A 40.764 40.764 0 0 1 327.437 37.622 Q 332.223 35.122 336.134 35.1 A 12.341 12.341 0 0 1 336.201 35.1 Q 336.901 35.1 336.901 36.5 Q 336.901 37.813 336.33 39.345 A 11.958 11.958 0 0 1 336.251 39.55 Q 335.827 40.627 335.339 41.001 A 0.874 0.874 0 0 1 334.801 41.2 Q 334.601 41.2 334.401 41 L 334.401 40.8 Q 334.401 40.6 334.451 40.4 A 1.248 1.248 0 0 0 334.476 40.272 Q 334.495 40.131 334.5 39.929 A 5.624 5.624 0 0 0 334.501 39.8 L 334.501 39.5 A 1.83 1.83 0 0 0 334.487 39.262 Q 334.454 39.007 334.339 38.893 A 0.322 0.322 0 0 0 334.101 38.8 A 17.07 17.07 0 0 0 328.007 40.042 Q 321.604 42.496 313.701 49.8 A 17.842 17.842 0 0 0 312.975 50.576 Q 312.133 51.525 311.101 52.9 A 94.567 94.567 0 0 0 309.92 54.513 Q 309.405 55.232 308.85 56.028 A 170.819 170.819 0 0 0 307.701 57.7 L 306.701 59.9 L 304.001 61.4 A 24.937 24.937 0 0 1 303.297 61.774 Q 302.17 62.348 301.578 62.468 A 1.409 1.409 0 0 1 301.301 62.5 A 1.052 1.052 0 0 1 301.079 62.479 Q 300.757 62.409 300.71 62.111 A 0.702 0.702 0 0 1 300.701 62 Z M 295.601 35.2 L 306.201 35.1 Q 307.901 35.1 307.901 35.9 A 0.7 0.7 0 0 1 307.577 36.484 Q 307.159 36.788 306.201 36.9 A 32.117 32.117 0 0 1 304.261 37.121 Q 303.339 37.195 302.511 37.2 A 19.485 19.485 0 0 1 302.401 37.2 A 8.239 8.239 0 0 1 302.498 37.634 A 6.538 6.538 0 0 1 302.551 37.95 Q 302.593 38.239 302.6 38.425 A 1.937 1.937 0 0 1 302.601 38.5 Q 302.601 41.7 298.801 46.7 Q 295.701 50.8 291.801 53.8 Q 283.001 60.5 276.001 62.4 A 14.776 14.776 0 0 1 274.524 62.789 Q 273.766 62.944 273.084 62.985 A 7.995 7.995 0 0 1 272.601 63 Q 269.001 63 269.001 59.2 A 14.207 14.207 0 0 1 270.132 53.807 Q 271.54 50.361 274.701 46.7 A 559.955 559.955 0 0 1 275.59 45.573 Q 276.383 44.569 277.351 43.35 Q 278.901 41.4 280.901 39.1 A 0.046 0.046 0 0 0 280.915 39.099 Q 280.995 39.071 279.548 38.558 A 110.939 110.939 0 0 0 279.101 38.4 Q 278.423 38.192 278.099 37.82 A 1.204 1.204 0 0 1 277.801 37 A 1.179 1.179 0 0 1 277.936 36.42 Q 278.204 35.936 279.01 35.83 A 3.788 3.788 0 0 1 279.501 35.8 Q 281.075 35.8 284.679 34.93 A 75.593 75.593 0 0 0 284.801 34.9 A 40.746 40.746 0 0 1 286.011 34.125 A 44.367 44.367 0 0 1 286.051 34.1 A 48.235 48.235 0 0 1 287.38 33.313 A 53.242 53.242 0 0 1 287.401 33.3 A 4.813 4.813 0 0 1 288.381 32.816 A 3.646 3.646 0 0 1 289.601 32.6 A 3.207 3.207 0 0 1 290.391 32.703 A 4.067 4.067 0 0 1 290.851 32.85 Q 291.501 33.1 292.301 33.5 A 224.13 224.13 0 0 0 293.216 33.997 Q 293.634 34.222 294.007 34.421 A 126.337 126.337 0 0 0 294.251 34.55 Q 295.101 35 295.601 35.2 Z M 77.801 42.3 L 78.101 40.6 A 1.005 1.005 0 0 1 78.372 40.157 Q 79.14 39.338 82.001 38.1 A 21.997 21.997 0 0 1 83.351 37.501 Q 85.1 36.8 86.201 36.8 Q 87.001 36.8 86.801 37.4 Q 86.134 39.69 83.828 42.89 A 40.262 40.262 0 0 1 83.601 43.2 L 78.701 49.9 A 32.195 32.195 0 0 1 77.949 50.939 Q 77.258 51.857 76.351 52.95 A 96.135 96.135 0 0 0 75.201 54.368 Q 74.695 55.003 74.145 55.711 A 180.677 180.677 0 0 0 73.001 57.2 Q 73.165 57.119 73.628 56.937 A 37.08 37.08 0 0 1 73.851 56.85 Q 74.501 56.6 75.601 56.2 Q 76.358 55.925 77.35 55.579 A 238.498 238.498 0 0 1 78.301 55.25 A 131.089 131.089 0 0 1 79.586 54.817 Q 80.156 54.627 80.785 54.423 A 240.475 240.475 0 0 1 82.101 54 Q 83.485 53.506 85.552 52.866 A 149.921 149.921 0 0 1 85.601 52.85 Q 87.045 52.403 88.867 51.933 A 112.693 112.693 0 0 1 90.601 51.5 A 0.864 0.864 0 0 1 90.839 51.53 Q 91.201 51.634 91.201 52.1 L 91.201 52.3 A 0.49 0.49 0 0 1 91.019 52.68 Q 90.871 52.81 90.601 52.9 A 96.871 96.871 0 0 0 81.985 55.601 Q 74.182 58.482 69.201 62.2 Q 68.101 63 66.801 63 A 2.492 2.492 0 0 1 66.462 62.979 Q 66.084 62.927 65.922 62.745 A 0.5 0.5 0 0 1 65.801 62.4 Q 65.801 62.113 66.077 61.733 A 2.693 2.693 0 0 1 66.101 61.7 Q 66.901 60.4 67.951 58.9 Q 69.001 57.4 70.101 55.8 A 71.934 71.934 0 0 1 71.574 53.617 A 86.442 86.442 0 0 1 72.551 52.25 A 109.399 109.399 0 0 0 74.561 49.398 A 126.415 126.415 0 0 0 75.301 48.3 A 23.859 23.859 0 0 0 76.299 46.806 Q 77.224 45.293 77.576 44.088 A 6.688 6.688 0 0 0 77.601 44 A 3.4 3.4 0 0 0 77.697 43.331 A 3.918 3.918 0 0 0 77.701 43.15 Q 77.701 42.7 77.801 42.3 Z M 3.401 74.2 L 3.401 74.3 Q 3.401 74.9 4.701 74.9 A 14.959 14.959 0 0 0 7.207 74.637 Q 11.298 73.919 19.06 71.24 A 256.869 256.869 0 0 0 24.201 69.4 A 121.773 121.773 0 0 0 36.519 64.389 Q 42.989 61.313 48.301 57.7 A 2800.984 2800.984 0 0 1 44.955 58.575 Q 43.478 58.959 41.865 59.378 A 4906.354 4906.354 0 0 1 38.501 60.25 Q 32.901 61.7 25.601 63.5 A 54.65 54.65 0 0 0 19.4 65.321 A 60.757 60.757 0 0 0 18.501 65.65 Q 14.901 67 11.101 68.7 A 64.63 64.63 0 0 0 8.534 69.965 Q 3.663 72.512 3.415 74.039 A 1.003 1.003 0 0 0 3.401 74.2 Z M 298.001 37.7 L 293.501 37.7 A 23.333 23.333 0 0 0 291.943 37.75 Q 290.72 37.832 289.751 38.05 Q 288.395 38.357 287.383 38.778 A 9.547 9.547 0 0 0 287.101 38.9 Q 284.201 41.1 278.501 47.7 A 42.581 42.581 0 0 0 276.162 50.797 A 53.48 53.48 0 0 0 274.601 53.2 Q 272.101 57.3 272.101 58.7 L 272.101 58.9 A 2.805 2.805 0 0 0 272.168 59.542 Q 272.418 60.6 273.601 60.6 A 1.906 1.906 0 0 0 273.8 60.589 Q 273.919 60.577 274.051 60.55 Q 274.301 60.5 274.701 60.4 Q 281.301 58.5 289.601 52.2 A 22.009 22.009 0 0 0 291.64 50.499 A 26.205 26.205 0 0 0 292.551 49.6 A 53.872 53.872 0 0 0 295.38 46.427 A 57.148 57.148 0 0 0 295.401 46.4 A 27.954 27.954 0 0 0 296.845 44.4 Q 298.168 42.369 298.548 40.794 A 5.1 5.1 0 0 0 298.701 39.6 A 3.329 3.329 0 0 0 298.611 38.802 A 2.305 2.305 0 0 0 298.001 37.7 Z M 93.501 58.3 A 0.698 0.698 0 0 0 93.651 58.283 Q 93.794 58.251 93.975 58.163 A 2.44 2.44 0 0 0 94.001 58.15 Q 94.299 58.001 94.695 57.902 A 4.54 4.54 0 0 1 94.701 57.9 A 17.958 17.958 0 0 0 95.859 57.297 Q 97.255 56.51 99.151 55.2 A 98.3 98.3 0 0 0 101.347 53.635 Q 102.318 52.924 103.382 52.115 A 191.205 191.205 0 0 0 105.601 50.4 Q 108.201 48.4 111.101 45.55 Q 114.001 42.7 117.401 39.2 A 6.176 6.176 0 0 0 116.905 38.331 Q 116.599 37.891 116.256 37.609 A 2.084 2.084 0 0 0 114.901 37.1 A 8.874 8.874 0 0 0 112.033 37.638 Q 108.334 38.911 103.201 43.2 Q 96.539 48.67 93.733 53.249 A 20.352 20.352 0 0 0 93.701 53.3 Q 92.401 55.2 92.401 56.7 A 3.445 3.445 0 0 0 92.443 57.264 Q 92.61 58.265 93.442 58.299 A 1.452 1.452 0 0 0 93.501 58.3 Z M 182.701 63.6 L 182.501 64 Q 182.501 64.5 183.401 64.5 A 6.299 6.299 0 0 0 185.888 63.936 Q 188.48 62.821 191.601 59.5 Q 194.158 56.845 198.939 49.258 A 218.074 218.074 0 0 0 199.101 49 Q 197.701 50 195.651 51.55 Q 193.89 52.882 191.722 54.621 A 258.451 258.451 0 0 0 191.001 55.2 A 268.876 268.876 0 0 0 189.872 56.194 Q 188.989 56.975 188.301 57.6 A 92.723 92.723 0 0 0 187.783 58.075 Q 187.051 58.75 186.601 59.2 A 164.044 164.044 0 0 1 185.438 60.353 Q 184.888 60.892 184.392 61.366 A 96.357 96.357 0 0 1 184.251 61.5 A 7.94 7.94 0 0 0 183.363 62.493 A 5.998 5.998 0 0 0 182.701 63.6 Z M 142.761 45.256 A 20.119 20.119 0 0 0 144.801 43.5 A 25.592 25.592 0 0 0 146.374 41.79 Q 148.601 39.114 148.601 37.2 Q 148.601 35.8 147.301 35.7 A 3.182 3.182 0 0 0 146.789 35.66 Q 143.086 35.66 136.532 43.681 A 89.311 89.311 0 0 0 134.401 46.4 Q 135.401 47.4 137.201 47.4 Q 139.871 47.4 142.761 45.256 Z M 87.426 23.981 A 0.693 0.693 0 0 0 87.801 24.1 A 4.191 4.191 0 0 0 88.077 24.092 Q 88.444 24.067 88.735 23.976 A 1.447 1.447 0 0 0 89.751 23 Q 89.965 22.33 90.234 21.845 A 3.509 3.509 0 0 1 90.601 21.3 A 18.591 18.591 0 0 0 90.903 20.802 Q 91.183 20.32 91.351 19.95 A 3.035 3.035 0 0 0 91.518 19.495 A 2.252 2.252 0 0 0 91.601 18.9 Q 91.601 18.6 91.001 18.6 Q 90.551 18.6 89.792 18.882 A 10.566 10.566 0 0 0 89.251 19.1 A 9.382 9.382 0 0 0 88.968 19.229 A 8.316 8.316 0 0 0 87.201 20.35 Q 86.75 20.727 86.525 21.116 A 1.551 1.551 0 0 0 86.301 21.9 A 1.205 1.205 0 0 0 86.316 22.083 Q 86.388 22.547 86.801 23.25 A 3.853 3.853 0 0 0 86.941 23.47 Q 87.183 23.826 87.426 23.981 Z"/>
  </g>
</svg>
